<svg xmlns="http://www.w3.org/2000/svg" width="252" height="70" fill="none"><g filter="url(#a)"><rect width="242" height="60" x="5" y="1" stroke="#fff" stroke-width="2" rx="8" shape-rendering="crispEdges"/><path fill="#fff" d="M33 30a1 1 0 0 0-1 1v4a1 1 0 0 0 2 0v-4a1 1 0 0 0-1-1m.38-3.92a1 1 0 0 0-.76 0 1 1 0 0 0-.33.21 1.2 1.2 0 0 0-.21.33.84.84 0 0 0-.08.38 1 1 0 0 0 .29.71q.147.133.33.21A1 1 0 0 0 34 27a1.05 1.05 0 0 0-.29-.71 1 1 0 0 0-.33-.21M33 21a10 10 0 1 0 0 20 10 10 0 0 0 0-20m0 18a8 8 0 1 1 0-16.001A8 8 0 0 1 33 39m24.112-8.128a14 14 0 0 0 2.288.208q1.04 0 1.328-.016-.032-1.216-.032-2.336v-1.52q0-.4.032-.496.031-.112.208-.208.176-.096.512-.096.48 0 .48.576v5.664q0 1.76-.08 3.872-.015.464-.784.464-.384 0-.384-.464l.064-4.24q-.511.032-1.408.032-.88 0-2.224-.192 0 2.112.192 4.416.015.255-.224.4a1.3 1.3 0 0 1-.608.128q-.352 0-.384-.368a49 49 0 0 1-.208-4.48l.096-4.992q0-.32.24-.464.24-.16.512-.16.448 0 .448.432zm10.764-1.344q.704 0 .704 1.2V31l-.032 1.12q-.016.528-.016 1.04l.24 3.616q0 .4-.816.4h-.24a.27.27 0 0 1-.256-.144.55.55 0 0 1-.016-.352.7.7 0 0 0-.032-.464Q66.677 37 65.46 37q-2.256 0-2.256-3.488 0-1.936.72-2.928.737-.992 2.096-.992.64 0 1.28.224a.67.67 0 0 1 .576-.288m-1.664 1.456q-.912 0-1.36.528-.447.528-.448 1.936 0 2.368 1.28 2.368.337 0 .736-.304.417-.304.576-.688a5.7 5.7 0 0 0 .304-1.888q0-1.024-.256-1.488-.24-.464-.832-.464m8.954-1.536q.224 0 .336.16a.5.5 0 0 1 .112.32l-.016.16q-.672 1.712-.992 2.784-.208.752-.32 1.12l-.336 1.296q-.24.928-.32 1.2-.224.544-.784.544-.272 0-.384-.352-.512-1.6-1.504-3.616a781 781 0 0 0-1.136-2.304 1.4 1.4 0 0 1-.128-.544q0-.24.208-.464a.69.69 0 0 1 .496-.224q.272 0 .464.288.176.352.992 1.968.832 1.616 1.168 2.544a4 4 0 0 1 .112-.4q.816-2.832 1.328-4.048.272-.432.704-.432m3.862.144q.849 0 1.616.496.768.495.768 1.232 0 .72-.624 1.408-.623.672-1.664.816-.447.064-1.344.064.177 1.36.688 1.792.16.176.432.176.993 0 1.664-.624.672-.64.96-.64.129 0 .384.24.256.24.256.448 0 .416-1.008 1.2a4.1 4.1 0 0 1-1.088.624q-.624.24-1.168.24-1.392 0-2.048-1.792-.416-1.104-.416-2.432c0-1.328.208-1.648.624-2.288q.624-.96 1.968-.96m.08 1.104q-.608 0-1.04.688-.16.24-.304 1.088 2.24 0 2.24-1.104 0-.672-.896-.672m12.783-1.168q.704 0 .704 1.2V31l-.032 1.12q-.016.528-.016 1.04l.24 3.616q0 .4-.816.4h-.24a.27.27 0 0 1-.256-.144.55.55 0 0 1-.016-.352.7.7 0 0 0-.032-.464q-.736.784-1.952.784-2.256 0-2.256-3.488 0-1.936.72-2.928.736-.992 2.096-.992.64 0 1.28.224a.67.67 0 0 1 .576-.288m-1.664 1.456q-.912 0-1.36.528t-.448 1.936q0 2.368 1.28 2.368.337 0 .736-.304.416-.304.576-.688a5.7 5.7 0 0 0 .304-1.888q0-1.024-.256-1.488-.24-.464-.832-.464m8.4 5.52-.175-6.496q0-.304.208-.496t.416-.192q.512 0 .592.432.064.432.064.896.864-1.136 2.16-1.136 1.984 0 1.984 4.528v1.264q0 .832-.096 1.216-.112.48-.688.48-.384 0-.384-.512l.016-.896q0-1.856-.128-2.528a11 11 0 0 0-.224-1.088q-.272-.864-.88-.864-.8 0-1.12.576-.352.624-.416 1.472a42 42 0 0 0-.112 3.152q0 .32-.24.512a.9.9 0 0 1-.576.192q-.4 0-.4-.512zm8.003-9.616q.288 0 .544.272t.256.576q0 .288-.288.592-.272.304-.576.304t-.56-.256a.92.92 0 0 1-.24-.656q0-.768.832-.832zm.672 8.384.016 1.12q0 .304-.24.512a.8.8 0 0 1-.512.192q-.4 0-.416-.4-.208-5.104-.208-5.648t.048-1.328q.033-.288.368-.288.849 0 .96.688.048.352.048.56l-.064 1.008zm1.946-2.016q0-1.072.56-1.952a3.65 3.65 0 0 1 1.456-1.312q.88-.448 1.712-.448.833 0 1.328.208.512.192.512.528 0 .32-.192.656-.175.32-.48.32-.111 0-.624-.176-.495-.192-.64-.192-.927 0-1.584.688-.656.672-.656 1.792t.352 1.68q.369.544 1.248.544.353 0 1.2-.4.864-.416 1.072-.416t.336.128a.43.43 0 0 1 .128.32q0 .384-.496.816a4.2 4.2 0 0 1-1.2.704q-.72.272-1.296.272-1.28 0-2.016-1.008-.72-1.008-.72-2.752m9.052-3.664a2.93 2.93 0 0 1 1.616.496q.768.495.768 1.232 0 .72-.624 1.408-.624.672-1.664.816-.449.064-1.344.064.175 1.36.688 1.792.159.176.432.176.992 0 1.664-.624.672-.64.96-.64.127 0 .384.24.255.24.256.448 0 .416-1.008 1.2a4.1 4.1 0 0 1-1.088.624q-.624.24-1.168.24-1.392 0-2.048-1.792-.416-1.104-.416-2.432c0-1.328.208-1.648.624-2.288q.624-.96 1.968-.96m.08 1.104q-.609 0-1.04.688-.16.24-.304 1.088 2.24 0 2.24-1.104 0-.672-.896-.672m12.142-1.184-.016-3.088q0-.864.544-.864.56 0 .624.48.032.208.08 2.512a162 162 0 0 0 .144 4.32q.112 2.016.112 3.76 0 .48-.72.48-.48 0-.48-.672-.688.544-1.632.544-1.2 0-1.952-.896-.736-.895-.736-2.208 0-1.312.528-2.448.544-1.152 1.68-1.648a3.4 3.4 0 0 1 1.36-.304q.24 0 .464.032m.08 2.192q-.112-.352-.272-.528a.6.6 0 0 0-.352-.224 1.7 1.7 0 0 0-.432-.048q-.256 0-.624.192c-.368.192-.453.336-.624.624a3.53 3.53 0 0 0-.512 1.824q0 .945.368 1.552.384.592 1.072.592.703 0 1.104-.688.4-.688.4-1.76 0-1.2-.128-1.536m7.114-2.176q.704 0 .704 1.2V31l-.032 1.12q-.016.528-.016 1.04l.24 3.616q0 .4-.816.4h-.24a.27.27 0 0 1-.256-.144.56.56 0 0 1-.016-.352.7.7 0 0 0-.032-.464q-.735.784-1.952.784-2.256 0-2.256-3.488 0-1.936.72-2.928.737-.992 2.096-.992.64 0 1.28.224a.67.67 0 0 1 .576-.288m-1.664 1.456q-.912 0-1.36.528t-.448 1.936q0 2.368 1.28 2.368.337 0 .736-.304.417-.304.576-.688a5.6 5.6 0 0 0 .304-1.888q0-1.024-.256-1.488-.24-.464-.832-.464m8.89-1.376q.208 0 .4.144.208.144.208.32 0 .465-1.36 5.024c-1.36 4.559-1.579 5.173-2.016 6.4q-.144.432-.448.432a.58.58 0 0 1-.48-.224q-.176-.209-.176-.624c0-.415.176-.944.528-2q.544-1.568.656-2-.4-.672-2.704-6.72a.6.6 0 0 1-.032-.208q0-.128.192-.336c.192-.208.304-.208.528-.208q.336 0 .544.336.224.576.736 2.016.512 1.424.784 2.064.288.64.544 1.328.224-.752.768-2.912.544-2.175.624-2.48.064-.352.704-.352m3.998-3.616-.144 5.456q0 .88.016 1.152a.78.78 0 0 1-.256.368.58.58 0 0 1-.4.16q-.225 0-.368-.352-.24-4.032-.24-6.784.144-.4.736-.4.591 0 .656.4m-1.104 10.24q-.24-.288-.24-.576t.224-.528a.77.77 0 0 1 .592-.24q.384 0 .544.144.176.144.176.624 0 .848-.704.848a.76.76 0 0 1-.592-.272M222.175 31l5.25-5.242a.836.836 0 1 0-1.183-1.183L221 29.825l-5.242-5.25a.834.834 0 0 0-1.183 0 .836.836 0 0 0 0 1.183l5.25 5.242-5.25 5.242a.83.83 0 0 0-.246.591.82.82 0 0 0 .246.592.84.84 0 0 0 .592.246.83.83 0 0 0 .591-.246l5.242-5.25 5.242 5.25a.82.82 0 0 0 .591.246.838.838 0 0 0 .592-1.43z"/></g><defs><filter id="a" width="252" height="70" x="0" y="0" color-interpolation-filters="sRGB" filterUnits="userSpaceOnUse"><feFlood flood-opacity="0" result="BackgroundImageFix"/><feColorMatrix in="SourceAlpha" result="hardAlpha" values="0 0 0 0 0 0 0 0 0 0 0 0 0 0 0 0 0 0 127 0"/><feOffset dy="4"/><feGaussianBlur stdDeviation="2"/><feComposite in2="hardAlpha" operator="out"/><feColorMatrix values="0 0 0 0 0 0 0 0 0 0 0 0 0 0 0 0 0 0 0.16 0"/><feBlend in2="BackgroundImageFix" result="effect1_dropShadow_6979_17980"/><feBlend in="SourceGraphic" in2="effect1_dropShadow_6979_17980" result="shape"/></filter></defs></svg>